<svg xmlns="http://www.w3.org/2000/svg" viewBox="0 0 1200 400" width="95" height="32"><defs><clipPath clipPathUnits="userSpaceOnUse" id="cp1"><path d="" /></clipPath></defs><style>tspan { white-space:pre } .shp1 { fill: #ffcc00 } </style><g ><g ><path fill="currentColor" d="M27.38 299.4L27.38 248.79L122.27 248.79C124.04 248.79 125.51 248.2 126.7 247.02C127.96 245.76 128.59 244.24 128.59 242.47C128.59 240.7 127.96 239.22 126.7 238.04C125.51 236.78 124.04 236.14 122.27 236.14L84.31 236.14C68.62 236.14 55.21 230.58 44.08 219.44C32.95 208.31 27.38 194.9 27.38 179.21C27.38 163.52 32.95 150.11 44.08 138.98C55.21 127.84 68.62 122.28 84.31 122.28L179.2 122.28L179.2 172.88L84.31 172.88C82.54 172.88 81.02 173.52 79.76 174.78C78.58 175.96 77.99 177.44 77.99 179.21C77.99 180.98 78.58 182.5 79.76 183.77C81.02 184.95 82.54 185.54 84.31 185.54L122.27 185.54C137.96 185.54 151.37 191.1 162.5 202.24C173.63 213.37 179.2 226.78 179.2 242.47C179.2 258.16 173.63 271.57 162.5 282.7C151.37 293.83 137.96 299.4 122.27 299.4L27.38 299.4Z" /><path fill="currentColor" d="M242.46 236.14L242.46 299.4L191.85 299.4L191.85 122.28L242.46 122.28L242.46 185.54L305.72 185.54L305.72 122.28L356.32 122.28L356.32 299.4L305.72 299.4L305.72 236.14L242.46 236.14Z" /><path fill="currentColor" d="M419.58 208.69L419.58 299.4L368.97 299.4L368.97 86.47L495.49 212.99L495.49 122.28L546.1 122.28L546.1 335.21L419.58 208.69Z" /><path fill="currentColor" fill-rule="evenodd" class="shp0" d="M634.66 122.28C659.12 122.28 679.99 130.92 697.28 148.21C714.58 165.5 723.22 186.38 723.22 210.84C723.22 235.3 714.58 256.17 697.28 273.47C679.99 290.76 659.12 299.4 634.66 299.4L558.75 299.4L558.75 122.28L634.66 122.28ZM634.66 248.79C645.12 248.79 654.06 245.08 661.48 237.66C668.9 230.24 672.61 221.3 672.61 210.84C672.61 200.38 668.9 191.44 661.48 184.02C654.06 176.6 645.12 172.88 634.66 172.88L609.36 172.88L609.36 248.79L634.66 248.79Z" /></g><g clip-path="url(#cp1)"><g ></g></g><path fill-rule="evenodd" class="shp1" d="M922.15 195.34L1176.07 44.59L938.06 164.82L941.6 166.92L946.47 176.44L902.2 200.23L888.84 192.97L673.24 335.2L922.15 195.34ZM910.15 178.92L938.06 164.82L865.98 121.87L757.75 121.75L888.84 192.97L910.15 178.92ZM1081.34 298.67L1167.25 298.5L1016.43 210.44L1016.43 210.44L973.93 242.45L1081.34 298.67Z" /><path class="shp1" d="M879.01 181.16C879.01 181.16 891.76 171.27 905.3 166.41C920.78 165.16 939.37 166.13 939.37 166.13L952.54 176.41C952.54 176.41 926.82 187.36 911.43 195.98C903.64 201.77 900.72 204.2 900.72 204.2L879.01 181.16Z" /></g></svg>
